# xmcd CD database file
#
# Track frame offsets:
#	150
#	21459
#	34998
#	52497
#	71984
#	92083
#	110959
#	125659
#	141420
#	156153
#	173203
#	192968
#	211828
#	230789
#
# Disc length: 4617 seconds
#
# Revision: 2
# Processed by: cddbd v1.5.2PL0 Copyright (c) Steve Scherf et al.
# Submitted via: CDex 1.79
#
DISCID=e612070e
DTITLE=Lonsperch Roffler - Hausbrand
DYEAR=2002
DGENRE=Blues
TTITLE0=I hea do wos kumman
TTITLE1=Du kriagst as niama meah
TTITLE2=Schof af di
TTITLE3=Da olde Jaga
TTITLE4=Angelina
TTITLE5=I brauch kan Doukta
TTITLE6=Hey Babe
TTITLE7=Schetzga moja
TTITLE8=Schleich di
TTITLE9=Schlog mi
TTITLE10=I tua des wos i mog
TTITLE11=Wuuduu Sau
TTITLE12=Mei Diandls
TTITLE13=Sozialemanzentussi Blues
EXTD=YEAR: 2002
EXTT0=
EXTT1=
EXTT2=
EXTT3=
EXTT4=
EXTT5=
EXTT6=
EXTT7=
EXTT8=
EXTT9=
EXTT10=
EXTT11=
EXTT12=
EXTT13=
PLAYORDER=
